<svg width="112" height="13" viewBox="0 0 112 13" fill="none" xmlns="http://www.w3.org/2000/svg">
<path d="M7.54688 10.7734V12H1.52344V10.7734H7.54688ZM1.82812 0.625V12H0.320312V0.625H1.82812ZM6.75 5.51562V6.74219H1.52344V5.51562H6.75ZM7.46875 0.625V1.85938H1.52344V0.625H7.46875ZM10.6328 5.22656V12H9.17969V3.54688H10.5547L10.6328 5.22656ZM10.3359 7.45312L9.66406 7.42969C9.66927 6.85156 9.74479 6.31771 9.89062 5.82812C10.0365 5.33333 10.2526 4.90365 10.5391 4.53906C10.8255 4.17448 11.1823 3.89323 11.6094 3.69531C12.0365 3.49219 12.5312 3.39062 13.0938 3.39062C13.4896 3.39062 13.8542 3.44792 14.1875 3.5625C14.5208 3.67188 14.8099 3.84635 15.0547 4.08594C15.2995 4.32552 15.4896 4.63281 15.625 5.00781C15.7604 5.38281 15.8281 5.83594 15.8281 6.36719V12H14.3828V6.4375C14.3828 5.99479 14.3073 5.64062 14.1562 5.375C14.0104 5.10938 13.8021 4.91667 13.5312 4.79688C13.2604 4.67188 12.9427 4.60938 12.5781 4.60938C12.151 4.60938 11.7943 4.6849 11.5078 4.83594C11.2214 4.98698 10.9922 5.19531 10.8203 5.46094C10.6484 5.72656 10.5234 6.03125 10.4453 6.375C10.3724 6.71354 10.3359 7.07292 10.3359 7.45312ZM15.8125 6.65625L14.8438 6.95312C14.849 6.48958 14.9245 6.04427 15.0703 5.61719C15.2214 5.1901 15.4375 4.8099 15.7188 4.47656C16.0052 4.14323 16.3568 3.88021 16.7734 3.6875C17.1901 3.48958 17.6667 3.39062 18.2031 3.39062C18.6562 3.39062 19.0573 3.45052 19.4062 3.57031C19.7604 3.6901 20.0573 3.875 20.2969 4.125C20.5417 4.36979 20.7266 4.6849 20.8516 5.07031C20.9766 5.45573 21.0391 5.91406 21.0391 6.44531V12H19.5859V6.42969C19.5859 5.95573 19.5104 5.58854 19.3594 5.32812C19.2135 5.0625 19.0052 4.8776 18.7344 4.77344C18.4688 4.66406 18.151 4.60938 17.7812 4.60938C17.4635 4.60938 17.1823 4.66406 16.9375 4.77344C16.6927 4.88281 16.487 5.03385 16.3203 5.22656C16.1536 5.41406 16.026 5.63021 15.9375 5.875C15.8542 6.11979 15.8125 6.38021 15.8125 6.65625ZM28.2109 10.5547V6.20312C28.2109 5.86979 28.1432 5.58073 28.0078 5.33594C27.8776 5.08594 27.6797 4.89323 27.4141 4.75781C27.1484 4.6224 26.8203 4.55469 26.4297 4.55469C26.0651 4.55469 25.7448 4.61719 25.4688 4.74219C25.1979 4.86719 24.9844 5.03125 24.8281 5.23438C24.6771 5.4375 24.6016 5.65625 24.6016 5.89062H23.1562C23.1562 5.58854 23.2344 5.28906 23.3906 4.99219C23.5469 4.69531 23.7708 4.42708 24.0625 4.1875C24.3594 3.94271 24.7135 3.75 25.125 3.60938C25.5417 3.46354 26.0052 3.39062 26.5156 3.39062C27.1302 3.39062 27.6719 3.49479 28.1406 3.70312C28.6146 3.91146 28.9844 4.22656 29.25 4.64844C29.5208 5.0651 29.6562 5.58854 29.6562 6.21875V10.1562C29.6562 10.4375 29.6797 10.737 29.7266 11.0547C29.7786 11.3724 29.8542 11.6458 29.9531 11.875V12H28.4453C28.3724 11.8333 28.3151 11.612 28.2734 11.3359C28.2318 11.0547 28.2109 10.7943 28.2109 10.5547ZM28.4609 6.875L28.4766 7.89062H27.0156C26.6042 7.89062 26.237 7.92448 25.9141 7.99219C25.5911 8.05469 25.3203 8.15104 25.1016 8.28125C24.8828 8.41146 24.7161 8.57552 24.6016 8.77344C24.487 8.96615 24.4297 9.19271 24.4297 9.45312C24.4297 9.71875 24.4896 9.96094 24.6094 10.1797C24.7292 10.3984 24.9089 10.5729 25.1484 10.7031C25.3932 10.8281 25.6927 10.8906 26.0469 10.8906C26.4896 10.8906 26.8802 10.7969 27.2188 10.6094C27.5573 10.4219 27.8255 10.1927 28.0234 9.92188C28.2266 9.65104 28.3359 9.38802 28.3516 9.13281L28.9688 9.82812C28.9323 10.0469 28.8333 10.2891 28.6719 10.5547C28.5104 10.8203 28.2943 11.0755 28.0234 11.3203C27.7578 11.5599 27.4401 11.7604 27.0703 11.9219C26.7057 12.0781 26.2943 12.1562 25.8359 12.1562C25.263 12.1562 24.7604 12.0443 24.3281 11.8203C23.901 11.5964 23.5677 11.2969 23.3281 10.9219C23.0938 10.5417 22.9766 10.1172 22.9766 9.64844C22.9766 9.19531 23.0651 8.79688 23.2422 8.45312C23.4193 8.10417 23.6745 7.8151 24.0078 7.58594C24.3411 7.35156 24.7422 7.17448 25.2109 7.05469C25.6797 6.9349 26.2031 6.875 26.7812 6.875H28.4609ZM33.5 3.54688V12H32.0469V3.54688H33.5ZM31.9375 1.30469C31.9375 1.07031 32.0078 0.872396 32.1484 0.710938C32.2943 0.549479 32.5078 0.46875 32.7891 0.46875C33.0651 0.46875 33.276 0.549479 33.4219 0.710938C33.5729 0.872396 33.6484 1.07031 33.6484 1.30469C33.6484 1.52865 33.5729 1.72135 33.4219 1.88281C33.276 2.03906 33.0651 2.11719 32.7891 2.11719C32.5078 2.11719 32.2943 2.03906 32.1484 1.88281C32.0078 1.72135 31.9375 1.52865 31.9375 1.30469ZM37.3906 0V12H35.9375V0H37.3906ZM48.1094 1.63281L44.3438 12H42.8047L47.1406 0.625H48.1328L48.1094 1.63281ZM51.2656 12L47.4922 1.63281L47.4688 0.625H48.4609L52.8125 12H51.2656ZM51.0703 7.78906V9.02344H44.6797V7.78906H51.0703ZM59.4453 10.3594V0H60.8984V12H59.5703L59.4453 10.3594ZM53.7578 7.86719V7.70312C53.7578 7.05729 53.8359 6.47135 53.9922 5.94531C54.1536 5.41406 54.3802 4.95833 54.6719 4.57812C54.9688 4.19792 55.3203 3.90625 55.7266 3.70312C56.138 3.49479 56.5964 3.39062 57.1016 3.39062C57.6328 3.39062 58.0964 3.48438 58.4922 3.67188C58.8932 3.85417 59.2318 4.1224 59.5078 4.47656C59.7891 4.82552 60.0104 5.2474 60.1719 5.74219C60.3333 6.23698 60.4453 6.79688 60.5078 7.42188V8.14062C60.4505 8.76042 60.3385 9.31771 60.1719 9.8125C60.0104 10.3073 59.7891 10.7292 59.5078 11.0781C59.2318 11.4271 58.8932 11.6953 58.4922 11.8828C58.0911 12.0651 57.6224 12.1562 57.0859 12.1562C56.5911 12.1562 56.138 12.0495 55.7266 11.8359C55.3203 11.6224 54.9688 11.3229 54.6719 10.9375C54.3802 10.5521 54.1536 10.099 53.9922 9.57812C53.8359 9.05208 53.7578 8.48177 53.7578 7.86719ZM55.2109 7.70312V7.86719C55.2109 8.28906 55.2526 8.6849 55.3359 9.05469C55.4245 9.42448 55.5599 9.75 55.7422 10.0312C55.9245 10.3125 56.1562 10.5339 56.4375 10.6953C56.7188 10.8516 57.0547 10.9297 57.4453 10.9297C57.9245 10.9297 58.3177 10.8281 58.625 10.625C58.9375 10.4219 59.1875 10.1536 59.375 9.82031C59.5625 9.48698 59.7083 9.125 59.8125 8.73438V6.85156C59.75 6.5651 59.6589 6.28906 59.5391 6.02344C59.4245 5.7526 59.2734 5.51302 59.0859 5.30469C58.9036 5.09115 58.6771 4.92188 58.4062 4.79688C58.1406 4.67188 57.8255 4.60938 57.4609 4.60938C57.0651 4.60938 56.724 4.69271 56.4375 4.85938C56.1562 5.02083 55.9245 5.24479 55.7422 5.53125C55.5599 5.8125 55.4245 6.14062 55.3359 6.51562C55.2526 6.88542 55.2109 7.28125 55.2109 7.70312ZM68.4766 10.3594V0H69.9297V12H68.6016L68.4766 10.3594ZM62.7891 7.86719V7.70312C62.7891 7.05729 62.8672 6.47135 63.0234 5.94531C63.1849 5.41406 63.4115 4.95833 63.7031 4.57812C64 4.19792 64.3516 3.90625 64.7578 3.70312C65.1693 3.49479 65.6276 3.39062 66.1328 3.39062C66.6641 3.39062 67.1276 3.48438 67.5234 3.67188C67.9245 3.85417 68.263 4.1224 68.5391 4.47656C68.8203 4.82552 69.0417 5.2474 69.2031 5.74219C69.3646 6.23698 69.4766 6.79688 69.5391 7.42188V8.14062C69.4818 8.76042 69.3698 9.31771 69.2031 9.8125C69.0417 10.3073 68.8203 10.7292 68.5391 11.0781C68.263 11.4271 67.9245 11.6953 67.5234 11.8828C67.1224 12.0651 66.6536 12.1562 66.1172 12.1562C65.6224 12.1562 65.1693 12.0495 64.7578 11.8359C64.3516 11.6224 64 11.3229 63.7031 10.9375C63.4115 10.5521 63.1849 10.099 63.0234 9.57812C62.8672 9.05208 62.7891 8.48177 62.7891 7.86719ZM64.2422 7.70312V7.86719C64.2422 8.28906 64.2839 8.6849 64.3672 9.05469C64.4557 9.42448 64.5911 9.75 64.7734 10.0312C64.9557 10.3125 65.1875 10.5339 65.4688 10.6953C65.75 10.8516 66.0859 10.9297 66.4766 10.9297C66.9557 10.9297 67.349 10.8281 67.6562 10.625C67.9688 10.4219 68.2188 10.1536 68.4062 9.82031C68.5938 9.48698 68.7396 9.125 68.8438 8.73438V6.85156C68.7812 6.5651 68.6901 6.28906 68.5703 6.02344C68.4557 5.7526 68.3047 5.51302 68.1172 5.30469C67.9349 5.09115 67.7083 4.92188 67.4375 4.79688C67.1719 4.67188 66.8568 4.60938 66.4922 4.60938C66.0964 4.60938 65.7552 4.69271 65.4688 4.85938C65.1875 5.02083 64.9557 5.24479 64.7734 5.53125C64.5911 5.8125 64.4557 6.14062 64.3672 6.51562C64.2839 6.88542 64.2422 7.28125 64.2422 7.70312ZM73.625 4.875V12H72.1797V3.54688H73.5859L73.625 4.875ZM76.2656 3.5L76.2578 4.84375C76.138 4.81771 76.0234 4.80208 75.9141 4.79688C75.8099 4.78646 75.6901 4.78125 75.5547 4.78125C75.2214 4.78125 74.9271 4.83333 74.6719 4.9375C74.4167 5.04167 74.2005 5.1875 74.0234 5.375C73.8464 5.5625 73.7057 5.78646 73.6016 6.04688C73.5026 6.30208 73.4375 6.58333 73.4062 6.89062L73 7.125C73 6.61458 73.0495 6.13542 73.1484 5.6875C73.2526 5.23958 73.4115 4.84375 73.625 4.5C73.8385 4.15104 74.1094 3.88021 74.4375 3.6875C74.7708 3.48958 75.1667 3.39062 75.625 3.39062C75.7292 3.39062 75.849 3.40365 75.9844 3.42969C76.1198 3.45052 76.2135 3.47396 76.2656 3.5ZM80.9531 12.1562C80.3646 12.1562 79.8307 12.0573 79.3516 11.8594C78.8776 11.6562 78.4688 11.3724 78.125 11.0078C77.7865 10.6432 77.526 10.2109 77.3438 9.71094C77.1615 9.21094 77.0703 8.66406 77.0703 8.07031V7.74219C77.0703 7.05469 77.1719 6.44271 77.375 5.90625C77.5781 5.36458 77.8542 4.90625 78.2031 4.53125C78.5521 4.15625 78.9479 3.8724 79.3906 3.67969C79.8333 3.48698 80.2917 3.39062 80.7656 3.39062C81.3698 3.39062 81.8906 3.49479 82.3281 3.70312C82.7708 3.91146 83.1328 4.20312 83.4141 4.57812C83.6953 4.94792 83.9036 5.38542 84.0391 5.89062C84.1745 6.39062 84.2422 6.9375 84.2422 7.53125V8.17969H77.9297V7H82.7969V6.89062C82.776 6.51562 82.6979 6.15104 82.5625 5.79688C82.4323 5.44271 82.224 5.15104 81.9375 4.92188C81.651 4.69271 81.2604 4.57812 80.7656 4.57812C80.4375 4.57812 80.1354 4.64844 79.8594 4.78906C79.5833 4.92448 79.3464 5.1276 79.1484 5.39844C78.9505 5.66927 78.7969 6 78.6875 6.39062C78.5781 6.78125 78.5234 7.23177 78.5234 7.74219V8.07031C78.5234 8.47135 78.5781 8.84896 78.6875 9.20312C78.8021 9.55208 78.9661 9.85938 79.1797 10.125C79.3984 10.3906 79.6615 10.599 79.9688 10.75C80.2812 10.901 80.6354 10.9766 81.0312 10.9766C81.5417 10.9766 81.974 10.8724 82.3281 10.6641C82.6823 10.4557 82.9922 10.1771 83.2578 9.82812L84.1328 10.5234C83.9505 10.7995 83.7188 11.0625 83.4375 11.3125C83.1562 11.5625 82.8099 11.7656 82.3984 11.9219C81.9922 12.0781 81.5104 12.1562 80.9531 12.1562ZM90.8516 9.75781C90.8516 9.54948 90.8047 9.35677 90.7109 9.17969C90.6224 8.9974 90.4375 8.83333 90.1562 8.6875C89.8802 8.53646 89.4635 8.40625 88.9062 8.29688C88.4375 8.19792 88.013 8.08073 87.6328 7.94531C87.2578 7.8099 86.9375 7.64583 86.6719 7.45312C86.4115 7.26042 86.2109 7.03385 86.0703 6.77344C85.9297 6.51302 85.8594 6.20833 85.8594 5.85938C85.8594 5.52604 85.9323 5.21094 86.0781 4.91406C86.2292 4.61719 86.4401 4.35417 86.7109 4.125C86.987 3.89583 87.3177 3.71615 87.7031 3.58594C88.0885 3.45573 88.5182 3.39062 88.9922 3.39062C89.6693 3.39062 90.2474 3.51042 90.7266 3.75C91.2057 3.98958 91.5729 4.3099 91.8281 4.71094C92.0833 5.10677 92.2109 5.54688 92.2109 6.03125H90.7656C90.7656 5.79688 90.6953 5.57031 90.5547 5.35156C90.4193 5.1276 90.2188 4.94271 89.9531 4.79688C89.6927 4.65104 89.3724 4.57812 88.9922 4.57812C88.5911 4.57812 88.2656 4.64062 88.0156 4.76562C87.7708 4.88542 87.5911 5.03906 87.4766 5.22656C87.3672 5.41406 87.3125 5.61198 87.3125 5.82031C87.3125 5.97656 87.3385 6.11719 87.3906 6.24219C87.4479 6.36198 87.5469 6.47396 87.6875 6.57812C87.8281 6.67708 88.026 6.77083 88.2812 6.85938C88.5365 6.94792 88.862 7.03646 89.2578 7.125C89.9505 7.28125 90.5208 7.46875 90.9688 7.6875C91.4167 7.90625 91.75 8.17448 91.9688 8.49219C92.1875 8.8099 92.2969 9.19531 92.2969 9.64844C92.2969 10.0182 92.2188 10.3568 92.0625 10.6641C91.9115 10.9714 91.6901 11.237 91.3984 11.4609C91.112 11.6797 90.7682 11.8516 90.3672 11.9766C89.9714 12.0964 89.526 12.1562 89.0312 12.1562C88.2865 12.1562 87.6562 12.0234 87.1406 11.7578C86.625 11.4922 86.2344 11.1484 85.9688 10.7266C85.7031 10.3047 85.5703 9.85938 85.5703 9.39062H87.0234C87.0443 9.78646 87.1589 10.1016 87.3672 10.3359C87.5755 10.5651 87.8307 10.7292 88.1328 10.8281C88.4349 10.9219 88.7344 10.9688 89.0312 10.9688C89.4271 10.9688 89.7578 10.9167 90.0234 10.8125C90.2943 10.7083 90.5 10.5651 90.6406 10.3828C90.7812 10.2005 90.8516 9.99219 90.8516 9.75781ZM99.1172 9.75781C99.1172 9.54948 99.0703 9.35677 98.9766 9.17969C98.888 8.9974 98.7031 8.83333 98.4219 8.6875C98.1458 8.53646 97.7292 8.40625 97.1719 8.29688C96.7031 8.19792 96.2786 8.08073 95.8984 7.94531C95.5234 7.8099 95.2031 7.64583 94.9375 7.45312C94.6771 7.26042 94.4766 7.03385 94.3359 6.77344C94.1953 6.51302 94.125 6.20833 94.125 5.85938C94.125 5.52604 94.1979 5.21094 94.3438 4.91406C94.4948 4.61719 94.7057 4.35417 94.9766 4.125C95.2526 3.89583 95.5833 3.71615 95.9688 3.58594C96.3542 3.45573 96.7839 3.39062 97.2578 3.39062C97.9349 3.39062 98.513 3.51042 98.9922 3.75C99.4714 3.98958 99.8385 4.3099 100.094 4.71094C100.349 5.10677 100.477 5.54688 100.477 6.03125H99.0312C99.0312 5.79688 98.9609 5.57031 98.8203 5.35156C98.6849 5.1276 98.4844 4.94271 98.2188 4.79688C97.9583 4.65104 97.638 4.57812 97.2578 4.57812C96.8568 4.57812 96.5312 4.64062 96.2812 4.76562C96.0365 4.88542 95.8568 5.03906 95.7422 5.22656C95.6328 5.41406 95.5781 5.61198 95.5781 5.82031C95.5781 5.97656 95.6042 6.11719 95.6562 6.24219C95.7135 6.36198 95.8125 6.47396 95.9531 6.57812C96.0938 6.67708 96.2917 6.77083 96.5469 6.85938C96.8021 6.94792 97.1276 7.03646 97.5234 7.125C98.2161 7.28125 98.7865 7.46875 99.2344 7.6875C99.6823 7.90625 100.016 8.17448 100.234 8.49219C100.453 8.8099 100.562 9.19531 100.562 9.64844C100.562 10.0182 100.484 10.3568 100.328 10.6641C100.177 10.9714 99.9557 11.237 99.6641 11.4609C99.3776 11.6797 99.0339 11.8516 98.6328 11.9766C98.237 12.0964 97.7917 12.1562 97.2969 12.1562C96.5521 12.1562 95.9219 12.0234 95.4062 11.7578C94.8906 11.4922 94.5 11.1484 94.2344 10.7266C93.9688 10.3047 93.8359 9.85938 93.8359 9.39062H95.2891C95.3099 9.78646 95.4245 10.1016 95.6328 10.3359C95.8411 10.5651 96.0964 10.7292 96.3984 10.8281C96.7005 10.9219 97 10.9688 97.2969 10.9688C97.6927 10.9688 98.0234 10.9167 98.2891 10.8125C98.5599 10.7083 98.7656 10.5651 98.9062 10.3828C99.0469 10.2005 99.1172 9.99219 99.1172 9.75781Z" fill="#3F3F3F"/>
<path d="M106.336 6.46875L107.906 4.3125L105.547 3.60938L105.914 2.4375L108.273 3.30469L108.203 0.617188H109.391L109.312 3.35156L111.641 2.48438L112 3.67969L109.602 4.39062L111.141 6.50781L110.172 7.23438L108.727 4.98438L107.312 7.17969L106.336 6.46875Z" fill="#EB5757"/>
</svg>
